#!OML:ASF H:\Terrain\Patient Classification 1\Walking\liu\liu.ASF
:FULLY-SPECIFIED
:DEGREES
122
root 10.5620663406 17.2333299814 25.8040179683 7.27676847528 -1.95377361016 1.47667526699
lowerback -6.79815571093 2.02093192839 -2.67268123563
upperback -2.73896642078 2.84406285296 0.577914981694
thorax 0.822274297456 1.443693077 2.29624722146
lowerneck -18.4171307325 -5.66437358954 -14.5465555917
upperneck 22.1576165147 -6.97994813465 12.9035238117
head 11.2262072187 -2.92425679353 6.14440218229
rclavicle -2.43547226499e-14 2.45814292725e-16
rhumerus -43.9657734542 9.50338142795 -89.7208211294
rradius 29.5232292012
rwrist -12.0139155656
rhand -28.7736156 -25.5143490135
rfingers 7.12502
rthumb -2.13334527604 -55.4930244384
lclavicle -2.43547226499e-14 2.45814292725e-16
lhumerus -39.798436702 -3.77419697706 89.1257061204
lradius 19.0082212176
lwrist -5.26409245874
lhand -11.5987055012 -24.2007801021
lfingers 7.12502
lthumb 14.443721362 5.27724601395
rfemur -3.54814383254 -1.71614400322 16.9448972126
rtibia 56.3367287879
rfoot 12.75991133 -3.79328674547
rtoes -9.34280548752
lfemur -31.1003701731 4.31510086819 -27.2786472749
ltibia 31.1897653848
lfoot -7.48901543242 6.28394252328
ltoes 2.7673976332
123
root 10.5972264019 17.3204575533 26.1461635322 7.76104819463 -1.1761347233 0.264719836135
lowerback -5.33465010501 1.13378377795 -1.56760166584
upperback -3.95657962983 1.57970248812 1.17169403372
thorax -1.15549499446 0.838310589122 2.14620829677
lowerneck -17.512347915 -4.69257729362 -13.2627238523
upperneck 23.2081101019 -5.88874295978 11.7791736061
head 11.169867517 -2.48029189309 5.70512067021
rclavicle -4.28965942862e-15 9.08023776306e-15
rhumerus -46.5590026999 11.4090738191 -91.061665668
rradius 30.9196830572
rwrist -13.4352824136
rhand -32.9801827305 -24.839367278
rfingers 7.12502
rthumb -6.19507158692 -54.7286036867
lclavicle -4.28965942862e-15 9.08023776306e-15
lhumerus -38.2994204978 -4.68226721862 89.3834488242
lradius 19.2999601245
lwrist -5.54252939596
lhand -11.6909136487 -23.5115402211
lfingers 7.12502
lthumb 14.3548422798 5.97246782843
rfemur -9.96127789684 -2.17896187999 19.0333633895
rtibia 61.7402097243
rfoot 7.55310633073 -7.81014231974
rtoes -7.5912621935
lfemur -29.6381187061 4.27401741961 -26.0306308233
ltibia 29.3853789527
lfoot -7.41165108968 5.75650479965
ltoes -2.34866509089
124
root 10.7093780955 17.4252343057 26.7971774386 5.99413675861 -0.504946159705 2.31412494675
lowerback -6.08559004219 0.417020093094 -2.7570586676
upperback -3.2360332357 0.695372303708 0.766967230936
thorax 0.0346625757206 0.386031464911 2.37829386086
lowerneck -16.4760609947 -4.47798006042 -13.795271931
upperneck 23.3379503857 -5.61953964867 11.9461109914
head 10.9959243617 -2.41800998414 5.9099045079
rclavicle -1.39391917006e-14 3.32093445569e-16
rhumerus -47.3593222769 10.8697789482 -90.2426574703
rradius 31.6806540357
rwrist -11.9552354668
rhand -31.2866009307 -27.8521545688
rfingers 7.12502
rthumb -4.559891048 -57.7834722074
lclavicle -1.39391917006e-14 3.32093445569e-16
lhumerus -35.7496334566 -7.12564385282 90.3219785623
lradius 19.6860297744
lwrist -5.50933649522
lhand -11.4335321787 -23.4153742401
lfingers 7.12502
lthumb 14.6028415684 6.0505537506
rfemur -10.5218414431 -3.30737326659 16.0127497573
rtibia 62.9680669187
rfoot 2.11586923128 -7.28860246193
rtoes -12.4257893351
lfemur -23.1195986478 4.79313536479 -28.7246140998
ltibia 26.5752677881
lfoot -9.38673064567 4.79024398831
ltoes 0.520756252651
125
root 10.7521883313 17.4547645958 27.1371515666 6.30207429529 0.307705433738 1.46881809991
lowerback -6.07815237116 -0.435755516386 -2.02765835882
upperback -2.38415144276 -0.483909549338 1.31662639464
thorax 0.979598141665 -0.228538284737 2.46026309393
lowerneck -19.7954342613 -4.24146873581 -12.3481816544
upperneck 23.9489063381 -5.09122222706 11.0425879898
head 11.7300546169 -2.0650423826 5.42001776049
rclavicle 1.1173457921e-14 2.36064893413e-15
rhumerus -45.6037906298 10.4284661424 -88.8868216858
rradius 32.8192518075
rwrist -11.541851688
rhand -31.6387990707 -27.385267637
rfingers 7.12502
rthumb -4.89993051431 -57.3080167967
lclavicle 1.1173457921e-14 2.36064893413e-15
lhumerus -29.9798500475 -8.32301665908 89.8231601792
lradius 20.0270046007
lwrist -5.68246069885
lhand -9.58406837111 -23.0842417818
lfingers 7.12502
lthumb 16.3840670998 6.24377394523
rfemur -15.90836993 -3.11697685606 17.6915965814
rtibia 64.6731915138
rfoot -2.77602018107 -7.86631042333
rtoes -16.2211398855
lfemur -22.4099964031 4.01115076435 -27.7311117426
ltibia 27.1850985143
lfoot -11.1072967941 5.14469461122
ltoes -2.15250204333
126
root 10.7884074129 17.4624364342 27.5406217716 5.30369839517 0.662051901512 2.16800116666
lowerback -5.51043068892 -1.0945952259 -2.80924786547
upperback -1.50267688261 -1.32772277199 1.35686553101
thorax 1.63706232234 -0.67026855251 2.88328810988
lowerneck -21.0338945417 -4.07304812976 -11.8526504764
upperneck 24.2742181328 -4.78278795386 10.6545919564
head 12.0322678725 -1.89903662606 5.25119235307
rclavicle -4.39583901783e-14 2.75184677477e-15
rhumerus -45.2083969091 10.6632917644 -88.2921109198
rradius 34.3340219907
rwrist -12.6764463051
rhand -30.2661410092 -32.0175493658
rfingers 7.12502
rthumb -3.57451207969 -61.9682589879
lclavicle -4.39583901783e-14 2.75184677477e-15
lhumerus -25.9618954049 -11.9394035517 89.8929615947
lradius 20.675669001
lwrist -4.55882127082
lhand -11.1131004587 -23.3582597656
lfingers 7.12502
lthumb 14.9115980147 6.08502590241
rfemur -19.1971160132 -2.35359806299 17.215834274
rtibia 65.0545423353
rfoot -8.78683339036 -8.04733742912
rtoes -19.334819891
lfemur -19.2366462101 3.79593514749 -28.3643813112
ltibia 26.4017587239
lfoot -12.7290040094 4.83623346335
ltoes -0.0162506810943
127
root 10.8095261709 17.4510857133 27.9408690481 5.23070011185 1.46429944019 1.79756446918
lowerback -5.37091677939 -1.80572872357 -2.60241441673
upperback -1.32608690141 -2.29587316387 1.66674554787
thorax 1.8146549162 -1.15889931742 3.01729861769
lowerneck -21.8453407317 -3.66839015927 -10.8991374817
upperneck 24.9693590252 -4.24549407798 9.80242618257
head 12.3448244133 -1.66265815251 4.87340299147
rclavicle -1.95677759124e-14 8.45420626724e-15
rhumerus -45.3194391624 10.9230846434 -88.0019660394
rradius 35.4268712838
rwrist -14.2329231536
rhand -31.6754766582 -29.7663711772
rfingers 7.12502
rthumb -4.93533745228 -59.6885695639
lclavicle -1.95677759124e-14 8.45420626724e-15
lhumerus -22.5816215589 -14.3529199665 89.1654211556
lradius 21.5633497454
lwrist -3.53962382431
lhand -12.0983243587 -23.8524977171
lfingers 7.12502
lthumb 13.9622871624 5.65875430304
rfemur -23.1485832871 -1.66567469321 17.9364408727
rtibia 63.6351008094
rfoot -12.7129760634 -8.65510479096
rtoes -17.7150361198
lfemur -17.67068079 3.63933023103 -27.8914599808
ltibia 26.6248774346
lfoot -14.0772008917 4.37818858989
ltoes 0.532498835507
128
root 10.8404996429 17.3825872077 28.3620688288 4.36578259976 2.13183338292 2.63489814436
lowerback -5.46923627892 -2.401634197 -3.37415554704
upperback -0.264196326562 -3.03609309916 1.46262563895
thorax 3.05051333195 -1.56842202713 3.15437412186
lowerneck -22.3305222701 -3.31396482277 -10.7608460577
upperneck 24.4479464578 -3.9365586879 10.6038179911
head 12.2100721553 -1.39241744537 5.20142550183
rclavicle 2.73616428107e-14 3.09557440769e-16
rhumerus -44.5591482411 10.1054549854 -87.0994579717
rradius 36.7739174169
rwrist -15.2535732692
rhand -30.1717378567 -29.6579611565
rfingers 7.12502
rthumb -3.4832996886 -59.6091510699
lclavicle 2.73616428107e-14 3.09557440769e-16
lhumerus -18.8120837887 -16.9888534774 87.9533928701
lradius 23.0942482654
lwrist -1.10247214775
lhand -12.7007594911 -23.4960493535
lfingers 7.12502
lthumb 13.3816788646 6.05427322749
rfemur -25.9322768924 -1.48563297094 16.9284904568
rtibia 61.5815518998
rfoot -15.5807518853 -8.31027231782
rtoes -15.8880196023
lfemur -14.8733625519 3.61951751475 -28.7302044663
ltibia 26.5148653344
lfoot -15.5521180762 4.07247356142
ltoes 2.92298909172
